# xmcd
#
# Track frame offsets:
#	150
#	13874
#	25781
#	35297
#	47177
#	59952
#	71061
#	83637
#	95945
#	107441
#	118734
#	131975
#	142439
#	152682
#	163530
#	175355
#
# Disc length: 2496 seconds
#
# Revision: 0
# Processed by: cddbd v1.5.2PL0 Copyright (c) Steve Scherf et al.
# Submitted via: audiograbber 1.83.01
#
DISCID=ee09be10
DTITLE=—борник - The Golden Hits of th 50`s
DYEAR=1900
DGENRE=
TTITLE0=Bing Crosby and Grace Kelly - True Love
TTITLE1=Frank Sinatra - Love And Marriage
TTITLE2=Danny Kaye - Wonderful Copenhagen
TTITLE3=Johnnie Ray - Just Walking in the Rain
TTITLE4=The Ames Brothers - The Naughty Lady of Shady Lane
TTITLE5=Sonny James - Young Love
TTITLE6=Kay Starr - If You Love Me
TTITLE7=Elvis Presley - Love Me Tender
TTITLE8=Archie Bleyer - Hernando`s Hideaway
TTITLE9=Tony Arden - Kiss of Fire
TTITLE10=Gogi Grant - The Wayward Wind
TTITLE11=Slim Whitman - Rose Marie
TTITLE12=Georgia Gibbs - Kiss Me Another
TTITLE13=The Chords - Sh-Boom
TTITLE14=Andy Williams - Canadian Sunset
TTITLE15=The Mills Brothers - Glow Worm
EXTD=
EXTT0=
EXTT1=
EXTT2=
EXTT3=
EXTT4=
EXTT5=
EXTT6=
EXTT7=
EXTT8=
EXTT9=
EXTT10=
EXTT11=
EXTT12=
EXTT13=
EXTT14=
EXTT15=
PLAYORDER=
